<svg width="146" height="48" viewBox="0 0 146 48" fill="none" xmlns="http://www.w3.org/2000/svg">
<path d="M14.3398 24.768L6.59457 32.6879V43.8013H0.5V0.880615H6.59457V24.8957L29.7032 0.880615H36.6865L18.5298 20.1694L37.9562 43.8013H30.8459L14.3398 24.768Z" fill="white"/>
<path d="M82.3958 40.3523L84.8082 35.7536C87.6015 37.6697 91.9185 39.0749 96.1085 39.0749C101.568 39.0749 103.727 37.4143 103.727 34.604C103.727 27.3228 83.2845 33.5821 83.2845 20.6803C83.2845 14.8043 88.4903 10.9721 96.7434 10.9721C100.933 10.9721 105.758 12.1217 108.552 13.9101L106.012 18.5087C103.092 16.5926 99.9177 15.9539 96.7434 15.9539C91.6646 15.9539 89.1252 17.87 89.1252 20.4248C89.1252 28.0892 109.567 21.83 109.567 34.4762C109.567 40.3523 104.235 44.0567 95.6007 44.0567C90.3949 44.1845 85.0621 42.5239 82.3958 40.3523Z" fill="white"/>
<path d="M145.5 24.1293V43.8013H139.913V39.4581C138.009 42.3961 134.327 44.0568 129.248 44.0568C121.884 44.0568 117.313 40.0968 117.313 34.4763C117.313 29.2389 120.614 25.0235 130.264 25.0235H139.533V23.8738C139.533 18.892 136.612 16.0817 130.899 16.0817C127.089 16.0817 123.153 17.4868 120.614 19.5307L118.202 15.0598C121.503 12.3772 126.328 10.8443 131.533 10.8443C140.548 10.9721 145.5 15.3152 145.5 24.1293ZM139.66 33.8376V29.2389H130.645C124.804 29.2389 123.153 31.5382 123.153 34.2208C123.153 37.4143 125.82 39.4581 130.264 39.4581C134.708 39.5859 138.263 37.6698 139.66 33.8376Z" fill="white"/>
<path d="M63.6042 35.2427V43.929L67.2864 41.7574V33.0711L63.6042 35.2427Z" fill="white"/>
<path d="M73.7618 24.6403L58.6524 15.8262L50.2724 10.9721L42.0193 25.4067L42.1463 38.9471L57.1287 47.7612L58.6524 46.867V34.093L65.3818 22.2132L72.2382 26.1731V38.9471L73.7618 38.053V24.6403Z" fill="white"/>
</svg>
